<?xml version="1.0" encoding="UTF-8" standalone="no"?>
<svg width="60" height="60" viewBox="0 0 60 60" xmlns="http://www.w3.org/2000/svg">
  <!-- S logo with gradient background -->
  <defs>
    <linearGradient id="logoGradient" x1="0%" y1="0%" x2="100%" y2="100%">
      <stop offset="0%" style="stop-color:#2a3bff;stop-opacity:1" />
      <stop offset="100%" style="stop-color:#c7d2fe;stop-opacity:1" />
    </linearGradient>
  </defs>
  
  <!-- S logo square background -->
  <rect x="0" y="0" width="60" height="60" rx="12" fill="url(#logoGradient)" />
  
  <!-- S letter -->
  <path d="M36 15c-6 0-12 3-12 9 0 12 24 3 24 15 0 5-5 8-12 8-5 0-10-2-13-6l3-3c2 3 6 5 10 5 5 0 8-2 8-6 0-10-24-3-24-15 0-6 6-10 14-10 5 0 9 1 12 4l-3 4c-2-3-5-5-9-5z" fill="white" />
</svg>
