<?xml version="1.0" encoding="UTF-8" standalone="no"?>
<svg width="400" height="80" viewBox="0 0 400 80" xmlns="http://www.w3.org/2000/svg">
  <!-- S logo with gradient background -->
  <defs>
    <linearGradient id="logoGradient" x1="0%" y1="0%" x2="100%" y2="100%">
      <stop offset="0%" style="stop-color:#2a3bff;stop-opacity:1" />
      <stop offset="100%" style="stop-color:#c7d2fe;stop-opacity:1" />
    </linearGradient>
  </defs>
  
  <!-- S logo square background -->
  <rect x="0" y="10" width="60" height="60" rx="12" fill="url(#logoGradient)" />
  
  <!-- S letter -->
  <path d="M36 25c-6 0-12 3-12 9 0 12 24 3 24 15 0 5-5 8-12 8-5 0-10-2-13-6l3-3c2 3 6 5 10 5 5 0 8-2 8-6 0-10-24-3-24-15 0-6 6-10 14-10 5 0 9 1 12 4l-3 4c-2-3-5-5-9-5z" fill="white" />
  
  <!-- samir.xyz text -->
  <path d="M90 54c-7 0-12-5-12-12 0-7 5-12 12-12 3 0 6 1 8 3l-3 3c-1-1-3-2-5-2-5 0-8 4-8 8 0 5 3 8 8 8 2 0 4-1 5-2l3 3c-2 2-5 3-8 3zm25-16h-7v16h-4V38h-7v-4h18v4zm24-4l-9 20h-4l-9-20h5l6 14 6-14h5zm16 16v4h-12V34h12v4h-8v4h7v4h-7v4h8zm38-16l-8 10 8 10h-5l-6-8-2 2v6h-4V34h4v9l8-9h5zm20 4h-7v16h-4V38h-7v-4h18v4zm24-4v4h-5v16h-4V38h-5v-4h14zm18 20h-4l-8-20h5l5 14 5-14h5l-8 20zm36-4v4h-12V34h12v4h-8v4h7v4h-7v4h8z" fill="white" />
</svg>
