<svg width="512" height="512" viewBox="0 0 512 512" fill="none" xmlns="http://www.w3.org/2000/svg">
  <rect width="512" height="512" rx="96" fill="url(#paint0_linear)"/>
  <path d="M306 170c-60 0-120 30-120 90 0 120 240 30 240 150 0 50-50 80-120 80-50 0-100-20-130-60l30-30c20 30 60 50 100 50 50 0 80-20 80-60 0-100-240-30-240-150 0-60 60-100 140-100 50 0 90 10 120 40l-30 40c-20-30-50-50-90-50z" fill="white" />
  <defs>
    <linearGradient id="paint0_linear" x1="0" y1="0" x2="512" y2="512" gradientUnits="userSpaceOnUse">
      <stop stop-color="#2A3BFF"/>
      <stop offset="1" stop-color="#C7D2FE"/>
    </linearGradient>
  </defs>
</svg>
