<?xml version="1.0" encoding="UTF-8" standalone="no"?>
<svg width="400" height="80" viewBox="0 0 400 80" xmlns="http://www.w3.org/2000/svg">
  <!-- Logo + wordmark combo for CTVE KTTVE -->
  <defs>
    <linearGradient id="logoGradient" x1="0%" y1="0%" x2="100%" y2="100%">
      <stop offset="0%" style="stop-color:#2a3bff;stop-opacity:1" />
      <stop offset="100%" style="stop-color:#c7d2fe;stop-opacity:1" />
    </linearGradient>
  </defs>
  
  <!-- S logo square background with gradient -->
  <rect x="10" y="10" width="60" height="60" rx="12" fill="url(#logoGradient)" />
  
  <!-- S letter inside the square -->
  <path d="M40 25c-6 0-12 2-12 8 0 10 18 4 18 12 0 4-4 7-10 7-4 0-8-2-10-5l3-3c1 2 4 4 7 4 4 0 6-2 6-5 0-8-18-3-18-12 0-5 5-8 12-8 3 0 7 1 9 3l-2 3c-1-2-4-4-7-4z" fill="white" />
  
  <!-- "CTVE KTTVE" text in white -->
  <path d="M100 45c0 7-5 12-12 12s-12-5-12-12 5-12 12-12 12 5 12 12zm-4 0c0-5-4-9-8-9s-8 4-8 9 4 9 8 9 8-4 8-9zm20-11h4v22h-4v-8h-8v8h-4V34h4v10h8V34zm36 22h-4V40h-10v16h-4V34h18v22zm30-11c0 7-5 12-12 12s-12-5-12-12 5-12 12-12 12 5 12 12zm-4 0c0-5-4-9-8-9s-8 4-8 9 4 9 8 9 8-4 8-9zm30 1h-10v6h12v4h-16V34h16v4h-12v6h10v4zm20-12h4v18h10v4h-14V34zm20 22V34h4v22h-4zm36-11c0 7-5 12-12 12s-12-5-12-12 5-12 12-12 12 5 12 12zm-4 0c0-5-4-9-8-9s-8 4-8 9 4 9 8 9 8-4 8-9zm30 1h-10v6h12v4h-16V34h16v4h-12v6h10v4z" fill="white" />
</svg>
